<mxfile host="app.diagrams.net" modified="2023-07-24T14:19:19.198Z" agent="Mozilla/5.0 (Windows NT 10.0; Win64; x64) AppleWebKit/537.36 (KHTML, like Gecko) Chrome/114.0.0.0 Safari/537.36 Edg/114.0.1823.82" version="21.6.5" etag="37gj4nUj4BfLxVIu67FH" type="github">
  <diagram name="第 1 页" id="rjjF-3w61h9-X6BArXE9">
    <mxGraphModel>
      <root>
        <mxCell id="0" />
        <mxCell id="1" parent="0" />
      </root>
    </mxGraphModel>
  </diagram>
</mxfile>
